<mxfile
  host="Electron" 
  agent="Mozilla/5.0 (Macintosh; Intel Mac OS X 10_15_7) AppleWebKit/537.36 (KHTML, like Gecko) draw.io/25.0.2 Chrome/128.0.6613.186 Electron/32.2.5 Safari/537.36" 
  version="25.0.2"
  >
  <diagram
    name="-"
    >
    <mxGraphModel
      grid="1" 
      gridSize="10" 
      guides="1" 
      tooltips="1" 
      connect="1" 
      arrows="1" 
      fold="1" 
      page="1" 
      pageScale="1" 
      pageWidth="1" 
      pageHeight="1" 
      math="0" 
      shadow="0"
      >
      <root>
        <mxCell
          id="page"
          />
        <mxCell
          id="root" 
          parent="page"
          />
        <mxCell
          style="verticalAlign=top;aspect=fixed;align=center;spacingLeft=5;spacingRight=5;spacingBottom=5;strokeColor=none;" 
          id="shape_" 
          parent="root" 
          value=" " 
          vertex="1"
          >
          <mxGeometry
            as="geometry" 
            width="48" 
            height="48" 
            x="0" 
            y="0"
            />
          </mxCell>
        <mxCell
          style="shape=image;editableCssRules=.*;verticalLabelPosition=bottom;labelBackgroundColor=default;verticalAlign=top;aspect=fixed;imageAspect=0;image=data:image/svg+xml,PHN2ZyB4bWxucz0iaHR0cDovL3d3dy53My5vcmcvMjAwMC9zdmciIHZpZXdCb3g9Ii0wLjUgLTAuNSAyOCAyOCIgaGVpZ2h0PSIyOCIgd2lkdGg9IjI4Ij4mI3hhOwkgIDxzdHlsZSB0eXBlPSJ0ZXh0L2NzcyI+LnN0MCB7IHN0b3AtY29sb3I6IHJnYig5MSwgMTE1LCAxMzkpOyB9IC5zdDEgeyBzdG9wLWNvbG9yOiByZ2IoMzQsIDUzLCA3Mik7IH0gPC9zdHlsZT4mI3hhOwk8ZGVmcz4mI3hhOwkJPGxpbmVhckdyYWRpZW50IGdyYWRpZW50VW5pdHM9InVzZXJTcGFjZU9uVXNlIiB5Mj0iMjUuMzA5IiB4Mj0iMjMuNDU0IiB5MT0iMy40NzQiIHgxPSIyLjAzOSIgaWQ9IkEiPiYjeGE7CQkJPHN0b3AgY2xhc3M9InN0MCIvPiYjeGE7CQkJPHN0b3AgY2xhc3M9InN0MSIgb2Zmc2V0PSIxIi8+JiN4YTsJCTwvbGluZWFyR3JhZGllbnQ+JiN4YTsJPC9kZWZzPiYjeGE7CTxwYXRoIGZpbGw9InVybCgjQSkiIGQ9Ik0xNS4yNSAxMy4xNzNhMS43IDEuNyAwIDAgMC0uMTE2LS42OGMtLjA4NS0uMjE2LS4yMTMtLjQxMy0uMzc2LS41NzhzLS4zNjItLjI5MS0uNTc4LS4zNzYtLjQ0OC0uMTI0LS42OC0uMTE2Yy0uMjMyLS4wMDgtLjQ2NC4wMzEtLjY4LjExNnMtLjQxMy4yMTMtLjU3OC4zNzYtLjI5MS4zNjItLjM3Ni41NzhhMS43IDEuNyAwIDAgMC0uMTE2LjY4djdjMCAuNDcyLjE2NS44OTIuNDkyIDEuMjU4LjE2NS4xNjMuMzYyLjI5MS41NzkuMzc1cy40NDguMTIzLjY4LjExNWExLjcgMS43IDAgMCAwIDEuMjU4LS40OWMuMzI3LS4zNjYuNDkyLS43ODQuNDkyLTEuMjZ2LTd6TTEzLjUtLjVjMS45MzIgMCAzLjczNi4zNjYgNS40MTQgMS4wOTQgMS43MTMuNzMgMy4yMDggMS43MzIgNC40ODMgMy4wMDggMS4yODMgMS4yODcgMi4zMDUgMi44MSAzLjAwOCA0LjQ4NS43MyAxLjY3NiAxLjA5NCAzLjQ4MiAxLjA5NCA1LjQxM2ExMy44MiAxMy44MiAwIDAgMS0xLjA5NCA1LjQ2OWMtLjcxMyAxLjY1NC0xLjczNCAzLjE1OC0zLjAwOCA0LjQzMS0xLjI4NiAxLjI4Mi0yLjgwOSAyLjMwMy00LjQ4MyAzLjAwNi0xLjcxLjczNi0zLjU1MyAxLjEwOC01LjQxNCAxLjA5NC0xLjg3OC4wMTEtMy43MzktLjM2MS01LjQ2OS0xLjA5NGExNC4yMyAxNC4yMyAwIDAgMS03LjQzNy03LjQzN0ExMy44MiAxMy44MiAwIDAgMS0uNSAxMy41YzAtMS45MzIuMzY0LTMuNzM2IDEuMDk0LTUuNDEzLjczLTEuNzE1IDEuNzMyLTMuMjA5IDMuMDA4LTQuNDg1UzYuMzc4IDEuMzA3IDguMDMxLjU5NEExMy44MiAxMy44MiAwIDAgMSAxMy41LS41em0wIDkuNzM1YTIuMDEgMi4wMSAwIDAgMCAxLjQ3Ny0uNjAyIDIuMDEgMi4wMSAwIDAgMCAuNjAyLTEuNDc3YzAtLjU4My0uMjAxLTEuMDc0LS42MDItMS40NzUtLjE4NC0uMjEtLjQxMS0uMzc3LS42NjYtLjQ5MXMtLjUzMi0uMTctLjgxMS0uMTY2Yy0uMjc5LS4wMDQtLjU1Ni4wNTItLjgxMS4xNjZzLS40ODIuMjgxLS42NjYuNDkxYy0uNDAxLjQwMS0uNi44OTItLjYgMS40NzVzLjIgMS4wNzYuNiAxLjQ3Ny44OTMuNjAyIDEuNDc3LjYwMnoiLz4mI3hhOzwvc3ZnPg;strokeColor=none;" 
          id="info_non_sap_" 
          parent="shape_" 
          value=" " 
          vertex="1"
          >
          <mxGeometry
            width="28" 
            height="28" 
            as="geometry" 
            x="10" 
            y="10"
            />
          </mxCell>
        </root>
      </mxGraphModel>
    </diagram>
  </mxfile>